<svg width="276" height="81" viewBox="0 0 276 81" fill="none" xmlns="http://www.w3.org/2000/svg">
<g clip-path="url(#clip0_6662_42385)">
<path d="M0 0.5H39.7386V80.5H0V0.5Z" fill="#008751"/>
<path d="M39.7385 0.5H79.4771V80.5H39.7385V0.5Z" fill="white"/>
<path d="M79.4771 0.5H119.216V80.5H79.4771V0.5Z" fill="#008751"/>
</g>
<path opacity="0.4" d="M149.812 41.3701L149.812 41.3696C149.428 37.8522 147.541 34.6863 144.632 32.6719C144.353 32.4772 144.286 32.0994 144.481 31.8197C144.675 31.5407 145.054 31.473 145.333 31.6681L145.334 31.6683C148.542 33.9006 150.611 37.3885 151.041 41.246C151.073 41.5807 150.835 41.8768 150.513 41.9205H150.512H150.512H150.512H150.512H150.512H150.511H150.511H150.511H150.511H150.51H150.51H150.51H150.51H150.509H150.509H150.509H150.509H150.508H150.508H150.508H150.508H150.508H150.507H150.507H150.507H150.507H150.506H150.506H150.506H150.506H150.505H150.505H150.505H150.505H150.504H150.504H150.504H150.504H150.504H150.503H150.503H150.503H150.503H150.502H150.502H150.502H150.502H150.501H150.501H150.501H150.501H150.501H150.5H150.5H150.5H150.5H150.499H150.499H150.499H150.499H150.498H150.498H150.498H150.498H150.498H150.497H150.497H150.497H150.497H150.496H150.496H150.496H150.496H150.496H150.495H150.495H150.495H150.495H150.494H150.494H150.494H150.494H150.493H150.493H150.493H150.493H150.493H150.492H150.492H150.492H150.492H150.491H150.491H150.491H150.491H150.491H150.49H150.49H150.49H150.49H150.489H150.489H150.489H150.489H150.488H150.488H150.488H150.488H150.488H150.487H150.487H150.487H150.487H150.486H150.486H150.486H150.486H150.486H150.485H150.485H150.485H150.485H150.484H150.484H150.484H150.484H150.484H150.483H150.483H150.483H150.483H150.482H150.482H150.482H150.482H150.482H150.481H150.481H150.481H150.481H150.48H150.48H150.48H150.48H150.479H150.479H150.479H150.479H150.479H150.478H150.478H150.478H150.478H150.477H150.477H150.477H150.477H150.477H150.476H150.476H150.476H150.476H150.475H150.475H150.475H150.475H150.475H150.474H150.474H150.474H150.474H150.473H150.473H150.473H150.473H150.473H150.472H150.472H150.472H150.472H150.471H150.471H150.471H150.471H150.47H150.47H150.47H150.47H150.47H150.469H150.469H150.469H150.469H150.468H150.468H150.468H150.468H150.468H150.467H150.467H150.467H150.467H150.466H150.466H150.466H150.466H150.465H150.465H150.465H150.465H150.465H150.464H150.464H150.464H150.464H150.463H150.463H150.463H150.463H150.463H150.462H150.462H150.462H150.462H150.461H150.461H150.461H150.461H150.46H150.46H150.46H150.46H150.46H150.459H150.459H150.459H150.459H150.458H150.458H150.458H150.458H150.457H150.457H150.457H150.457H150.457H150.456H150.456H150.456H150.456H150.455H150.455H150.455H150.455H150.454H150.454H150.454H150.454H150.454H150.453H150.453H150.453H150.453H150.452H150.452H150.452H150.452H150.451H150.451H150.451H150.451H150.45H150.45H150.45H150.45H150.45H150.449H150.449H150.449H150.449H150.448H150.448H150.448H150.448H150.447H150.447H150.447H150.447H150.446H150.446H150.446H150.446H150.445H150.445H150.445H150.445H150.445H150.444H150.444H150.444H150.444H150.443H150.443H150.443H150.443H150.442H150.442H150.442H150.442H150.441H150.441H150.441H150.441H150.44H150.44H150.44H150.44H150.439H150.439H150.439H150.439H150.438H150.438H150.438H150.438H150.437H150.437H150.437H150.437H150.436H150.436H150.436H150.436H150.435H150.435H150.435H150.435H150.434H150.434H150.434H150.434H150.433H150.433H150.433H150.433H150.432H150.432H150.432H150.432H150.431H150.431H150.431H150.431H150.43H150.43H150.43H150.43H150.429H150.429H150.429H150.429H150.428H150.428H150.428H150.428H150.427H150.427H150.427H150.427H150.426H150.426H150.426H150.425H150.425H150.425H150.425H150.424H150.424H150.424H150.424H150.423H150.423H150.423H150.423H150.422H150.422H150.422H150.422H150.421H150.421H150.421H150.42H150.42H150.42H150.42H150.419H150.419H150.419H150.419C150.109 41.9205 149.846 41.6861 149.812 41.3701Z" fill="#00A96E" stroke="#00A96E"/>
<path opacity="0.4" d="M124.935 42.4973C124.904 42.4973 124.858 42.4973 124.827 42.4973C124.214 42.436 123.769 41.884 123.831 41.2706C124.245 37.2686 126.361 33.65 129.657 31.3193C130.148 30.9666 130.853 31.0893 131.206 31.58C131.559 32.086 131.436 32.776 130.945 33.1286C128.185 35.0913 126.391 38.1273 126.054 41.4853C125.993 42.068 125.502 42.4973 124.935 42.4973Z" fill="#00A96E"/>
<path opacity="0.4" d="M143.718 55.2536C141.832 56.1583 139.808 56.6182 137.692 56.6182C135.484 56.6182 133.383 56.1276 131.421 55.1309C130.869 54.8703 130.654 54.1956 130.93 53.6436C131.191 53.0916 131.865 52.8769 132.417 53.1376C133.383 53.6282 134.411 53.9656 135.453 54.1649C136.864 54.4409 138.305 54.4563 139.716 54.2109C140.759 54.0269 141.786 53.7049 142.737 53.2449C143.304 52.9843 143.979 53.1989 144.224 53.7662C144.5 54.3182 144.285 54.9929 143.718 55.2536Z" fill="#00A96E"/>
<path d="M137.677 25.9824C135.3 25.9824 133.353 27.9144 133.353 30.3064C133.353 32.6984 135.285 34.6304 137.677 34.6304C140.069 34.6304 142.001 32.6984 142.001 30.3064C142.001 27.9144 140.069 25.9824 137.677 25.9824Z" fill="#00A96E"/>
<path d="M126.943 44.168C124.567 44.168 122.619 46.1 122.619 48.492C122.619 50.884 124.551 52.816 126.943 52.816C129.335 52.816 131.267 50.884 131.267 48.492C131.267 46.1 129.32 44.168 126.943 44.168Z" fill="#00A96E"/>
<path d="M148.257 44.168C145.88 44.168 143.933 46.1 143.933 48.492C143.933 50.884 145.865 52.816 148.257 52.816C150.649 52.816 152.581 50.884 152.581 48.492C152.581 46.1 150.649 44.168 148.257 44.168Z" fill="#00A96E"/>
<g clip-path="url(#clip1_6662_42385)">
<path d="M156 80.5H276V0.5H156V80.5Z" fill="#005430"/>
<path d="M246 32.2773C245.992 30.872 245.446 27.0866 245.308 25.8166C245.17 24.5467 245.031 23.3946 245.064 23.1249C245.097 22.8645 245.498 23.4868 245.71 23.5371C245.819 23.5152 245.77 23.1222 245.571 22.7865C245.436 22.5586 244.977 21.7064 244.698 21.207C244.567 20.9706 244.538 20.8335 244.475 20.8045C244.412 20.7755 243.905 21.7989 243.96 21.9123C244.099 22.1203 244.194 22.2196 244.215 22.587C244.237 22.9543 244.427 25.5772 244.669 27.5654C244.851 29.0652 245.251 32.2966 245.266 34.3056C245.27 34.961 245.197 35.5857 245.11 35.8467C244.886 36.2566 244.536 36.6263 243.233 37.3888C241.768 38.2461 239.814 38.9595 238.974 39.437C238.451 39.7348 238.625 39.7746 239.079 39.6443C239.533 39.514 241.878 39.0963 243.018 38.6148C244.087 38.1617 244.782 37.4036 245.309 36.2978C245.959 34.9306 246.009 33.7704 246 32.2773Z" fill="white"/>
<path d="M241.465 21.6023C241.578 21.5584 242.516 21.5101 242.768 21.5621C242.602 21.7992 241.478 22.3239 241.473 22.4201C241.504 22.4849 242.25 22.3003 242.485 22.1976C242.639 22.1051 242.741 21.9619 242.855 21.8431C243.124 21.5338 243.443 20.9601 243.363 20.8882C243.232 20.772 241.954 20.8443 241.786 20.8683C241.673 20.8845 241.387 21.3977 241.334 21.5294C241.283 21.6611 241.352 21.6462 241.465 21.6023Z" fill="white"/>
<path d="M243.38 29.9314C243.575 29.2696 243.624 28.4667 243.358 27.6215C243.085 26.7514 242.406 26.2209 241.917 25.9491L241.829 26.7868C241.829 26.7868 242.516 27.1279 242.985 27.9865C243.282 28.5312 243.406 29.3014 243.171 30.16C243.132 30.3731 243.284 30.2556 243.38 29.9314Z" fill="white"/>
<path d="M236.12 34.1312C236.296 33.5352 236.339 32.8123 236.1 32.0512C235.854 31.2675 235.243 30.7897 234.802 30.5459L234.723 31.2999C234.723 31.2999 235.341 31.6072 235.764 32.3797C236.032 32.8697 236.143 33.5642 235.932 34.3371C235.897 34.5282 236.034 34.4229 236.12 34.1312Z" fill="white"/>
<path d="M210.915 22.7259C211.198 23.2429 211.315 23.9749 211.092 24.7903C211.055 24.9926 211.199 24.8815 211.291 24.5736C211.475 23.9455 211.521 23.1824 211.269 22.3792C211.009 21.5522 210.364 21.0488 209.9 20.7912L209.817 21.5867C209.817 21.5867 210.469 21.9105 210.915 22.7259Z" fill="white"/>
<path d="M193.9 22.993C194.137 23.5495 194.153 24.3008 193.77 25.0922C193.695 25.2911 193.877 25.1969 194.029 24.8994C194.34 24.2913 194.515 23.5302 194.357 22.6895C194.195 21.8251 193.546 21.2359 193.06 20.9168L192.839 21.7066C192.839 21.7066 193.526 22.1158 193.9 22.993Z" fill="white"/>
<path d="M198.603 35.4315C198.905 34.8716 199.031 34.4948 199.165 33.8317C199.282 33.2482 199.29 32.5742 199.247 31.8881C200.15 31.5201 201.226 30.9093 201.588 30.8643C201.34 31.7132 201.93 32.6293 203.123 32.5097C203.214 33.4697 203.292 34.3128 203.339 34.8129C203.437 35.838 203.422 37.1299 203.419 37.3544C203.415 37.58 203.578 37.5374 203.746 37.035C203.969 36.3624 204.038 34.6059 203.957 33.4444C203.938 33.154 203.905 32.762 203.865 32.3152C204.638 31.9577 204.767 31.2675 205.056 30.9734C205.316 31.8868 206.752 32.0107 207.195 31.8152C207.744 31.5724 207.924 31.1358 208.065 30.1225C208.207 29.1096 207.794 28.7017 207.647 28.5913C207.632 28.7138 207.273 29.9044 207.273 29.9044C207.273 29.9044 207.614 30.2643 207.631 30.4413C207.353 30.6925 206.768 30.708 206.276 30.548C205.784 30.3879 205.633 30.0935 205.663 29.8959C205.691 29.6977 205.876 29.5174 205.882 29.276C205.888 29.0346 205.772 29.1045 205.575 29.3182C205.378 29.5323 205.251 29.7248 204.979 30.1843C204.756 30.5601 204.395 31.0187 203.757 31.1497C203.652 30.0462 203.532 28.8722 203.451 28.1347C203.409 27.7454 202.99 24.381 202.96 24.0045C202.934 23.6767 202.885 23.2901 202.893 23.1084C202.901 22.9639 202.992 23.0213 203.132 23.1726C203.273 23.3235 203.518 23.5869 203.561 23.5663C203.704 23.496 203.557 23.0588 203.37 22.6671C203.183 22.2744 202.545 20.7252 202.411 20.6614C202.342 20.629 201.911 21.5825 201.885 21.7703C201.952 21.8878 202.127 22.0725 202.133 22.5979C202.135 22.7444 202.229 24.1261 202.36 25.4325C202.474 26.5863 202.626 27.6809 202.64 27.8082C202.745 28.6888 202.871 29.9301 202.991 31.1503C202.299 31.0187 202.115 30.5621 202.13 30.3018C202.148 30.008 202.28 29.6765 202.217 29.6015C202.083 29.5215 201.29 29.9648 200.184 30.4413C199.873 30.575 199.522 30.7185 199.152 30.8546C199.056 30.0229 198.929 29.2321 198.878 28.6274L198.871 28.5602C199.599 28.5133 200.195 28.1459 200.466 27.7961C200.804 27.3588 201.041 26.459 201.064 25.7695C201.087 25.0793 200.53 23.8175 200.397 23.4164C200.264 23.0149 200.195 22.7367 200.183 22.5979C200.171 22.4591 200.484 22.7586 200.681 22.8174C200.814 22.844 200.768 22.5553 200.605 22.3571C200.443 22.1596 199.568 20.8316 199.507 20.9248C199.469 20.9795 199.119 21.9563 199.096 22.1059C199.234 22.1971 199.395 22.4483 199.407 22.689C199.418 22.9298 199.611 23.9883 199.825 24.5765C200.039 25.1647 200.496 26.2932 200.524 26.6035C200.198 26.8334 199.456 27.2227 198.721 27.1994C198.596 26.1703 198.437 24.975 198.351 24.1285C198.319 23.8013 198.316 23.4521 198.321 23.2698C198.325 23.1253 198.43 23.1452 198.573 23.2938C198.717 23.4424 198.937 23.6585 198.983 23.6429C199.081 23.6102 198.996 23.2823 198.8 22.893C198.605 22.5037 197.828 20.8569 197.692 20.7955C197.623 20.7641 197.276 21.6889 197.254 21.8777C197.323 21.9945 197.501 22.1751 197.518 22.7005C197.532 23.1189 197.736 25.1691 197.911 26.9749C197.184 26.5991 196.936 26.0619 196.846 25.16C196.783 24.5313 196.777 23.3731 196.553 22.4044C196.426 21.8567 196.16 21.3003 195.845 21.0048C195.769 21.1868 195.433 22.3041 195.433 22.3041C195.543 22.6249 195.884 23.705 195.872 24.641C195.861 25.577 195.787 26.492 194.738 27.1225C193.69 27.7532 192.118 27.5023 191.729 26.5184C191.341 25.5338 192.204 23.0652 192.193 22.4824C192.181 21.8996 192.077 21.8192 191.834 21.9155C191.59 22.0117 191.093 22.5736 190.664 23.4876C190.235 24.4023 190.044 25.5351 189.801 26.3053C189.558 27.0755 189.169 27.8558 188.567 27.8126C187.965 27.7701 187.641 27.2194 187.456 26.4228C187.271 25.6256 187.384 24.5759 187.435 24.3067C187.56 23.6328 187.269 23.7709 187.091 24.8291C186.981 25.4818 186.871 26.5241 187.259 27.6151C187.647 28.7061 188.307 29.1129 188.886 28.9735C189.465 28.8347 189.975 27.4763 190.154 26.8662C190.334 26.257 191.136 23.5514 191.59 23.4184C191.654 23.7233 191.237 24.7062 191.104 25.8559C190.971 27.0056 191.281 28.5501 192.74 28.8171C194.2 29.0846 195.19 28.1381 195.549 27.481C195.908 26.823 196.076 26.1331 196.116 25.7857C196.163 26.6676 196.765 28.0449 197.934 28.4376L198.055 28.4724C198.126 29.1943 198.244 30.1367 198.351 31.1264C198.124 31.1966 197.894 31.2601 197.666 31.3148C197.636 31.2199 197.604 31.127 197.565 31.0416C197.208 30.2741 196.618 29.5667 195.799 29.6157C194.963 29.6653 194.052 30.7809 194.092 31.5957C194.118 32.1437 194.42 32.5935 195.517 32.7086C196.018 32.7616 196.55 32.7059 197.099 32.586C197.177 32.8126 197.226 33.0378 197.231 33.2431C196.884 33.6497 194.007 35.8194 191.853 36.0281C189.699 36.2364 189.042 35.1073 189.02 33.9738C189.004 33.1114 189.523 32.2508 189.887 31.6551C190.409 31.2736 190.837 30.7965 191.107 30.4284C191.181 30.4737 191.25 30.5155 191.317 30.5544C191.574 30.704 191.677 30.9275 191.677 30.9275C191.724 30.8546 191.946 30.4561 191.859 30.2613C191.819 30.2133 191.625 30.0935 191.391 29.9513C191.636 29.3388 191.633 28.7273 191.315 28.5913C190.958 28.4396 190.494 28.861 190.293 29.118C190.189 29.2517 190.149 29.4033 190.148 29.5306C190.147 29.6944 190.224 29.8423 190.415 29.9739C190.605 30.1036 190.781 30.2211 190.947 30.3271C190.476 30.8215 189.364 31.5457 188.683 31.9712C188.658 31.9087 188.558 31.9746 188.424 32.1326L188.239 32.2464C187.696 32.5786 186.394 33.3083 186.138 33.4869C185.882 33.6659 186.042 33.6335 186.138 33.5936C186.319 33.496 186.556 33.3778 186.823 33.2475C187.2 33.0628 187.64 32.8538 188.069 32.6441C187.942 32.8595 187.811 33.1114 187.694 33.3863C187.182 34.5961 186.354 37.1035 188.145 38.6122C189.86 40.0563 192.806 39.507 195.25 38.0061C197.694 36.5049 198.221 35.9771 198.603 35.4315ZM190.636 29.4671C190.551 29.4047 190.54 29.3213 190.609 29.2632C190.697 29.1882 190.809 29.1173 190.937 29.0933C191.208 29.043 191.316 29.3544 191.207 29.8392C191.001 29.7133 190.789 29.5809 190.636 29.4671ZM196.241 31.5123C194.997 31.518 194.94 31.2922 194.963 31.1476C194.986 31.0038 195.373 30.6091 195.865 30.8694C196.073 30.9798 196.307 31.2108 196.524 31.5008C196.428 31.5079 196.334 31.5116 196.241 31.5123ZM192.43 38.0557C190.079 38.6973 187.786 37.7032 187.647 35.735C187.541 34.2321 188.089 33.0996 188.443 32.4615C188.78 32.2947 189.098 32.1326 189.362 31.9874C188.746 32.9784 188.386 34.3057 188.627 35.4301C188.899 36.7037 190.007 37.476 191.884 37.2268C193.741 36.9806 196.253 35.214 196.965 34.5478C197.182 34.3074 197.325 34.0906 197.52 33.649C197.6 33.4677 197.713 33.2283 197.755 32.9578C197.782 32.7815 197.797 32.5931 197.8 32.4013C198.018 32.3362 198.237 32.2632 198.458 32.1849C198.533 32.9912 198.588 33.7861 198.591 34.4735C197.434 35.8309 194.781 37.4138 192.43 38.0557Z" fill="white"/>
<path d="M233.55 32.8947C233.47 31.5778 233.278 29.1943 233.171 27.9852C233.076 26.9091 232.889 25.4342 232.753 24.1359C232.718 23.8091 232.715 23.4961 232.718 23.3141C232.722 23.1702 232.866 23.2256 233.01 23.3735C233.154 23.5214 233.379 23.7071 233.421 23.6845C233.562 23.6115 233.394 23.2509 233.196 22.863C232.999 22.4743 232.215 20.8667 232.079 20.8056C232.01 20.7746 231.643 21.7376 231.621 21.9263C231.691 22.0425 231.871 22.2224 231.89 22.7478C231.91 23.2736 232.175 25.6905 232.367 27.6452C232.5 29.0039 232.672 31.2209 232.797 32.8927C232.79 32.8954 232.915 34.482 232.928 34.6603C233.005 35.6868 232.965 36.9783 232.957 37.2025C232.949 37.4277 233.114 37.3885 233.29 36.8888C233.47 36.3786 233.573 35.2394 233.587 34.2109L233.55 32.8947Z" fill="white"/>
<path d="M226.875 28.2846C226.634 28.3582 226.255 28.1033 226.284 27.5688C226.311 27.0859 226.517 26.6338 226.597 26.3485C226.706 25.9548 226.707 25.5753 226.614 25.7904C226.406 26.2712 226.017 27.2007 225.936 27.8315C225.856 28.4622 226.06 28.8688 226.338 29.0075C226.684 29.1814 226.934 28.9056 227.102 28.499C227.265 28.1097 227.234 27.6552 227.121 27.7623C227.027 27.874 226.992 28.2485 226.875 28.2846Z" fill="white"/>
<path d="M223.41 30.2267C223.538 29.887 223.568 29.5541 223.469 29.7367C223.248 30.146 222.833 30.9368 222.711 31.4861C222.59 32.0355 222.737 32.4073 222.971 32.5481C223.262 32.7243 223.502 32.4984 223.683 32.1523C223.857 31.8211 223.866 31.4189 223.759 31.5061C223.667 31.5979 223.606 31.9244 223.501 31.9484C223.282 31.9967 222.97 31.7468 223.038 31.2781C223.099 30.8561 223.317 30.4722 223.41 30.2267Z" fill="white"/>
<path d="M213.32 37.3923C213.534 37.0456 213.64 36.6859 213.492 36.8676C213.161 37.2735 212.534 38.0612 212.282 38.6389C212.03 39.2167 212.11 39.6506 212.335 39.8481C212.615 40.0946 212.927 39.892 213.2 39.5479C213.462 39.218 213.56 38.7804 213.423 38.855C213.302 38.9391 213.165 39.2845 213.044 39.291C212.796 39.3031 212.508 38.9719 212.684 38.4728C212.844 38.0224 213.165 37.6435 213.32 37.3923Z" fill="white"/>
<path d="M231.01 27.2732C230.765 27.3347 230.403 27.0602 230.463 26.5277C230.518 26.0472 230.753 25.6066 230.849 25.3263C230.982 24.9384 231.005 24.5598 230.9 24.7692C230.663 25.2392 230.219 26.1468 230.1 26.7728C229.982 27.3985 230.161 27.8148 230.43 27.9678C230.766 28.1582 231.031 27.8962 231.224 27.4985C231.41 27.1183 231.407 26.6631 231.287 26.7644C231.187 26.8718 231.129 27.2435 231.01 27.2732Z" fill="white"/>
<path d="M230.935 33.8057C231.27 33.9961 231.536 33.7341 231.729 33.3363C231.914 32.9561 231.911 32.501 231.792 32.6023C231.691 32.709 231.634 33.0814 231.514 33.1111C231.269 33.1722 230.906 32.8981 230.968 32.3656C231.023 31.8851 231.257 31.4441 231.353 31.1642C231.486 30.7762 231.509 30.3971 231.404 30.6071C231.167 31.0771 230.723 31.9847 230.605 32.6101C230.486 33.2364 230.665 33.6527 230.935 33.8057Z" fill="white"/>
<path d="M235.22 25.4608C235.381 24.9914 235.409 24.5332 235.281 24.7868C234.994 25.3554 234.457 26.4535 234.313 27.2115C234.17 27.9689 234.388 28.4723 234.714 28.6577C235.119 28.888 235.44 28.5709 235.675 28.0901C235.898 27.6299 235.894 27.0785 235.751 27.2017C235.629 27.331 235.559 27.7808 235.415 27.8169C235.119 27.8912 234.679 27.5593 234.753 26.915C234.82 26.3336 235.103 25.8004 235.22 25.4608Z" fill="white"/>
<path d="M200.976 33.58C201.24 33.008 201.336 32.4353 201.141 32.7402C200.706 33.4226 199.887 34.7439 199.608 35.6798C199.327 36.6161 199.535 37.2739 199.92 37.5437C200.401 37.8786 200.846 37.5153 201.203 36.9376C201.544 36.3835 201.612 35.6896 201.415 35.8284C201.246 35.977 201.099 36.5355 200.912 36.5648C200.53 36.6249 200.021 36.1583 200.199 35.3564C200.36 34.6328 200.785 33.9939 200.976 33.58Z" fill="white"/>
<path d="M237.95 39.25C238.152 39.0842 239.912 38.1364 240.236 37.944C240.236 37.944 240.567 37.4037 240.468 37.3463C240.368 37.2889 239.726 37.873 239.326 37.8893C238.926 37.9055 238.379 37.6117 238.361 37.3709C238.413 37.1893 238.894 36.9165 239.068 36.9053C239.242 36.8952 239.214 37.2909 239.272 37.3392C239.33 37.3868 239.561 37.066 239.59 36.9323C239.619 36.799 239.595 36.2405 239.277 36.3205C238.773 36.4478 238.013 37.3818 237.927 37.6755C237.84 37.9699 238.309 38.2262 238.651 38.3657C238.622 38.3765 238.367 38.4994 238.205 38.6594C238.205 38.6594 238.031 38.8543 237.95 39.25Z" fill="white"/>
<path d="M231.95 40.4238C232.152 40.258 233.912 39.3109 234.236 39.1178C234.236 39.1178 234.568 38.5775 234.468 38.5201C234.368 38.4627 233.726 39.0469 233.326 39.0631C232.926 39.0793 232.379 38.7855 232.361 38.5448C232.413 38.3631 232.894 38.0903 233.068 38.0798C233.242 38.069 233.214 38.4644 233.272 38.5124C233.33 38.5606 233.561 38.2399 233.59 38.1062C233.619 37.9728 233.594 37.4143 233.277 37.4943C232.773 37.6223 232.013 38.5556 231.927 38.85C231.84 39.1438 232.309 39.4001 232.651 39.5395C232.622 39.5503 232.367 39.6729 232.205 39.8333C232.205 39.8333 232.031 40.0281 231.95 40.4238Z" fill="white"/>
<path d="M218.435 23.4368C218.593 23.6202 219.626 24.9333 220.436 25.7589C221.245 26.5851 222.633 27.9222 223.652 28.8386C223.849 29.0162 224.058 29.2087 224.271 29.4089C224.528 31.3829 224.826 33.8947 224.951 34.9333C225.074 35.9561 225.092 37.2476 225.095 37.4725C225.097 37.6977 225.259 37.6518 225.413 37.1463C225.62 36.4679 225.643 34.7115 225.534 33.5513C225.466 32.8348 225.306 31.4926 225.15 30.2551C225.752 30.8497 226.321 31.4396 226.704 31.8812C227.409 32.6919 228.001 33.3034 228.362 34.1749C228.618 34.7915 228.592 35.2821 228.697 35.379C228.788 35.4627 228.888 34.725 228.776 34.0095C228.595 32.8476 228.346 32.355 226.855 30.6961C226.286 30.062 225.616 29.3991 224.961 28.7795C224.936 28.5884 224.913 28.4115 224.892 28.2545C224.84 27.8665 224.335 24.5123 224.295 24.1364C224.261 23.8093 224.202 23.424 224.206 23.242C224.21 23.0971 224.302 23.1535 224.447 23.3014C224.591 23.449 224.843 23.7073 224.885 23.6847C225.026 23.6117 224.869 23.1785 224.672 22.7899C224.475 22.4019 223.797 20.8669 223.66 20.8062C223.591 20.7751 223.185 21.7377 223.164 21.9262C223.235 22.0423 223.413 22.2233 223.433 22.748C223.438 22.8946 223.568 24.2742 223.732 25.5769C223.876 26.728 224.055 27.8196 224.074 27.9459L224.075 27.9557C223.399 27.3398 222.804 26.8168 222.443 26.4882C221.6 25.7214 219.737 23.9018 219.662 23.6293C219.645 23.5432 219.79 23.5962 220.055 23.6387C220.322 23.6816 220.56 23.7725 220.517 23.6414C220.498 23.5797 220.395 23.427 220.141 23.2697C219.886 23.112 219.233 22.7034 218.747 22.4144C218.26 22.1257 218.019 21.8836 217.919 21.9528C217.869 21.9869 217.913 22.9759 217.943 23.0992C218.064 23.1096 218.278 23.2528 218.435 23.4368Z" fill="white"/>
<path d="M219.765 21.6577C219.965 21.6138 220.911 21.6377 221.255 21.71C221.111 21.8099 220.142 22.2992 219.951 22.4157C219.761 22.5325 219.713 22.6001 219.808 22.5886C220.086 22.5116 220.711 22.4157 221.011 22.2594C221.294 22.127 221.776 21.4814 221.963 21.2407C222.149 20.9999 222.149 20.8797 222.102 20.8152C221.91 20.7112 220.677 20.6069 220.082 20.7544C219.917 20.8662 219.595 21.4615 219.548 21.5854C219.5 21.71 219.565 21.7016 219.765 21.6577Z" fill="white"/>
<path d="M225.03 21.5807C225.191 21.5453 225.954 21.5645 226.231 21.6226C226.115 21.7033 225.335 22.0977 225.181 22.1922C225.026 22.2857 224.988 22.3404 225.065 22.331C225.289 22.2695 225.793 22.1922 226.035 22.0656C226.262 21.9589 226.65 21.4386 226.801 21.2451C226.951 21.0506 226.951 20.954 226.913 20.9024C226.76 20.8176 225.765 20.7339 225.286 20.8531C225.153 20.9429 224.894 21.4227 224.855 21.5226C224.816 21.6226 224.869 21.6162 225.03 21.5807Z" fill="white"/>
<path d="M229.31 21.526C229.471 21.4906 230.233 21.5098 230.51 21.5679C230.395 21.6486 229.614 22.043 229.46 22.1368C229.306 22.231 229.268 22.2857 229.345 22.2763C229.569 22.2148 230.112 22.1368 230.354 22.0109C230.582 21.9042 230.851 21.3839 231.002 21.1897C231.153 20.9959 231.153 20.8987 231.114 20.8477C230.961 20.7629 230.044 20.6792 229.566 20.7977C229.433 20.8882 229.173 21.368 229.135 21.4679C229.096 21.5679 229.148 21.5615 229.31 21.526Z" fill="white"/>
<path d="M226.64 23.609C226.386 24.0081 226.704 24.3302 226.82 24.6527C226.664 24.7955 226.423 24.6652 226.343 24.5399C226.172 24.283 226.229 23.7593 226.028 23.6786C225.977 23.82 225.943 23.977 225.943 23.977C225.943 23.977 226.096 24.3353 226.058 24.5723C226.033 24.7155 225.907 24.8826 225.74 24.886C225.295 24.8968 225.514 24.2384 225.343 23.8653C225.308 23.9564 225.282 24.0544 225.241 24.1398C225.273 24.237 225.29 24.3734 225.295 24.4521C225.305 24.6085 225.293 24.7769 225.32 24.9103C225.356 25.0991 225.461 25.2243 225.621 25.2365C225.954 25.2628 226.105 24.9937 226.155 24.7729C226.213 24.9981 226.652 25.2463 226.868 24.9697C227.154 24.6051 226.925 24.2927 226.779 23.9497C226.673 23.6961 226.703 23.5296 226.64 23.609Z" fill="white"/>
<path d="M214.155 22.5507C214.178 22.7148 214.262 22.8269 214.4 22.8438C214.684 22.8799 214.828 22.6541 214.882 22.4663C214.919 22.6625 215.287 22.8935 215.486 22.6645C215.751 22.3616 215.568 22.0834 215.457 21.7819C215.378 21.5584 215.412 21.4165 215.354 21.4824C215.117 21.8153 215.375 22.1067 215.46 22.3893C215.318 22.5055 215.118 22.3836 215.054 22.2732C214.919 22.0446 214.993 21.5958 214.824 21.5178C214.773 21.638 214.737 21.7714 214.737 21.7714C214.737 21.7714 214.851 22.0865 214.806 22.2887C214.779 22.4113 214.663 22.5501 214.518 22.5463C214.135 22.5379 214.355 21.9794 214.224 21.6516C214.19 21.7282 214.163 21.8123 214.124 21.8832C214.147 21.969 214.155 22.0865 214.155 22.155C214.158 22.2901 214.139 22.4339 214.155 22.5507Z" fill="white"/>
<path d="M223.22 38.0148C223.263 37.9469 223.357 37.7605 223.333 37.6332C223.309 37.506 223.153 36.9748 222.851 36.8418C222.55 36.7087 222.322 36.9876 222.178 37.3756L222.078 37.3733C222.054 37.4307 222.024 37.5164 222 37.6714C221.967 37.8953 221.903 38.0394 221.519 38.3879C221.196 38.6796 220.15 39.3803 219.472 39.7095C218.794 40.0394 218.306 40.324 218.126 40.4105C217.946 40.4955 217.999 40.5273 218.178 40.4736C218.357 40.4203 219.257 40.1302 219.616 39.9823C219.975 39.8334 220.413 39.5886 220.941 39.2459C221.528 38.865 221.879 38.4841 221.997 38.1465C222.081 37.9057 222.103 37.8095 222.103 37.8095C222.103 37.8095 222.323 37.9398 222.698 38.0253C223.071 38.111 223.176 38.0833 223.22 38.0148ZM222.714 37.2601C222.88 37.3233 222.981 37.5043 223.011 37.614C222.82 37.6184 222.469 37.5215 222.32 37.454C222.41 37.2801 222.566 37.2048 222.714 37.2601Z" fill="white"/>
<path d="M219.245 38.3892C218.724 38.3169 217.412 38.1174 217.091 37.3556C217.361 36.9626 218.602 36.4649 220.157 35.9992C221.712 35.5346 223.337 34.9316 223.774 34.6405C223.869 34.6081 224.054 34.6179 224.054 34.6179C224.133 34.3927 224.523 33.6019 224.548 33.4364C224.113 33.4611 221.434 33.6579 220.244 33.7218C219.054 33.7859 216.761 33.7704 215.997 33.7619C216.465 33.425 217.577 32.7672 219.167 32.206C219.373 32.1331 219.563 32.0673 219.741 32.0078C219.874 32.2435 219.972 32.4765 219.992 32.6794C220.093 32.5754 220.169 32.2307 220.144 31.8768C221.07 31.581 221.548 31.4831 221.754 31.4274C221.884 31.2589 222.114 30.5775 222.148 30.0822C222.01 29.83 221.577 29.5159 221.191 29.2461C220.659 28.8751 220.086 28.5516 219.515 28.6931C218.733 28.8849 218.576 30.3212 218.758 30.6258C218.816 30.722 218.954 30.8926 219.116 31.1029C218.545 31.3275 217.948 31.5915 217.421 31.869C216.248 32.487 214.938 33.1629 214.556 33.8129L214.447 33.8663C214.416 33.9277 214.174 34.9336 214.139 35.042C214.383 35.0336 216.205 35.0369 217.474 34.9974C218.742 34.9569 219.851 34.9167 220.285 34.9167C219.642 35.069 217.956 35.6954 217.472 36.0637C216.987 36.4331 216.682 36.9947 216.674 37.9573C216.223 37.7804 215.383 37.3762 214.667 36.4085C213.87 35.33 214.035 34.2208 213.716 32.7652C213.252 30.6528 212.261 28.8693 211.645 28.3237C211.437 29.0692 211.41 29.6311 211.41 29.6311C211.41 29.6311 212.183 31.3396 212.574 32.4302C212.965 33.5212 213.299 34.596 213.283 34.8367C212.961 35.5431 211.054 37.0227 209.465 37.8888C207.958 38.7099 206.631 38.7984 206.16 38.2136C206.068 38.0995 206.005 37.9644 205.97 37.8114C206.174 37.7159 206.379 37.6197 206.59 37.5234C207.945 36.9062 210.351 35.6069 210.915 34.9252C211.523 34.0989 211.515 32.9357 211.158 32.2698C210.803 31.6043 210.246 30.8338 210.202 30.5613C210.168 30.4327 210.564 30.6136 210.798 30.6258C210.911 30.6174 210.854 30.4651 210.611 30.2243C210.417 30.0325 209.666 29.4102 209.379 29.1675C209.307 29.1057 209.253 29.1307 209.239 29.1958C209.183 29.4443 209.068 29.9765 209.024 30.2392L209.055 30.3715C209.137 30.4205 209.232 30.4755 209.278 30.613C209.343 30.8078 209.571 31.3514 209.944 32.0375C210.317 32.7233 210.857 33.4803 210.91 33.8626C210.471 34.4224 208.258 35.6147 206.101 36.5972C206.235 36.1839 206.445 35.7166 206.724 35.1977C206.803 35.1099 206.876 35.0015 206.943 34.8792C207.158 34.4862 207.179 34.0057 207.048 34.1074C206.937 34.2151 206.856 34.6051 206.729 34.6314C206.467 34.6851 206.099 34.3795 206.192 33.8207C206.275 33.3166 206.545 32.8614 206.661 32.57C206.823 32.1669 206.867 31.7684 206.745 31.9852C206.47 32.4694 205.954 33.4074 205.795 34.0628C205.637 34.7172 205.805 35.1646 206.081 35.3378C206.185 35.4036 206.284 35.4242 206.378 35.4114C206.189 35.7713 205.955 36.213 205.784 36.7397C204.917 37.1277 204.074 37.4745 203.376 37.7243C200.865 38.6228 199.077 39.1523 197.825 39.5453L197.777 39.5672C197.869 39.2698 197.856 39.0159 197.758 39.0922C197.646 39.2006 197.566 39.5905 197.438 39.6162C197.176 39.6699 196.809 39.3647 196.901 38.8055C196.985 38.3014 197.254 37.8469 197.371 37.5552C197.531 37.1523 197.576 36.7532 197.454 36.9703C197.179 37.4545 196.663 38.3925 196.504 39.0476C196.346 39.7023 196.514 40.1497 196.79 40.3233C197.134 40.5394 197.427 40.2743 197.652 39.8644L197.731 39.6959C197.809 39.6959 197.941 39.6777 198.138 39.6338C198.711 39.5048 200.145 39.2968 202.116 39.0398C203.575 38.8501 204.583 38.4493 205.557 38.0032C205.553 38.1109 205.551 38.2207 205.556 38.3338C205.609 39.6712 206.486 40.0487 207.684 39.7985C208.841 39.5558 210.453 38.4955 211.419 37.7804C212.427 37.0348 213.008 36.3686 213.157 36.1363C213.425 35.5667 213.499 34.9373 213.517 34.6405C213.605 35.4583 213.677 36.5901 214.45 37.5609C215.162 38.4543 216.622 39.701 219.367 39.7351C219.376 39.4085 219.245 38.3892 219.245 38.3892ZM219.064 30.1018C219.456 29.6608 220.295 29.9491 220.924 30.5083C220.602 30.5839 220.164 30.7187 219.681 30.8912C219.394 30.5451 219.073 30.2115 219.064 30.1018Z" fill="white"/>
<path d="M203.631 24.0542C203.81 23.9728 204.355 23.7277 204.943 23.3853C205.529 23.0453 206.08 22.6334 206.35 22.3595C206.453 22.2545 206.545 22.1725 206.604 22.0749C206.78 22.1478 206.901 22.2234 206.977 22.2532C207.09 22.2971 207.242 22.3602 207.341 22.0367C207.439 21.7136 207.308 21.5049 207.116 21.2557C206.954 21.0467 206.696 20.7327 206.487 20.6547C206.309 20.5882 206.225 20.9846 206.252 20.9748H206.371L206.394 20.9859C206.149 21.1092 205.96 21.4928 205.941 21.6275C205.922 21.774 205.949 21.8821 206.3 21.9722L206.441 22.0138C206.148 22.3602 205.603 22.7184 205.232 22.9724C204.705 23.3337 203.957 23.7851 203.744 23.9154C203.531 24.0451 203.549 24.0859 203.631 24.0542ZM206.799 21.509L206.818 21.3357C207.064 21.6167 207.247 21.951 207.229 21.9982C207.116 22.0073 206.975 21.9027 206.728 21.7973C206.755 21.7136 206.778 21.6211 206.799 21.509ZM206.091 21.5093C206.089 21.4566 206.184 21.3101 206.385 21.2301C206.586 21.1494 206.674 21.3746 206.692 21.6488L206.632 21.7585L206.452 21.696C206.26 21.64 206.131 21.6082 206.091 21.5093Z" fill="white"/>
<path d="M216.775 29.3429C217.064 29.1518 217.859 28.5778 218.31 28.2016C218.624 27.9403 218.993 27.5554 219.243 27.2299C219.4 27.3315 219.546 27.4217 219.68 27.5C219.937 27.6502 220.04 27.8731 220.04 27.8731C220.087 27.8002 220.309 27.4011 220.222 27.2069C220.17 27.1434 219.854 26.9587 219.531 26.7609C219.695 26.3928 219.921 25.7563 219.597 25.5335C219.321 25.3444 218.854 25.6574 218.639 26.0636C218.46 26.3999 218.437 26.6852 218.777 26.9189C218.873 26.9847 218.965 27.0469 219.055 27.1059C218.712 27.4811 218.08 28.0362 217.63 28.414C217.072 28.8813 216.544 29.3395 216.452 29.4489L216.425 29.4915C216.303 29.1518 216.336 28.9421 216.246 29.0549C215.855 29.6684 216.345 30.1654 216.523 30.6618C216.282 30.8806 215.913 30.6797 215.789 30.4882C215.525 30.0918 215.613 29.2869 215.305 29.1623C215.225 29.3797 215.173 29.6218 215.173 29.6218C215.173 29.6218 215.408 30.1732 215.348 30.5372C215.312 30.7573 215.117 31.015 214.861 31.0194C214.175 31.0369 214.513 30.0233 214.249 29.4493C214.195 29.5901 214.157 29.7407 214.093 29.871C214.141 30.0219 214.168 30.2313 214.175 30.3525C214.192 30.5932 214.173 30.8516 214.213 31.0582C214.27 31.3486 214.431 31.5417 214.678 31.5596C215.189 31.6011 215.422 31.1858 215.499 30.8472C215.587 31.1936 216.264 31.5745 216.597 31.1497C217.038 30.5882 216.685 30.1074 216.459 29.5793L216.433 29.5107C216.464 29.5219 216.582 29.4702 216.775 29.3429ZM218.773 26.1811C218.943 25.8668 219.3 25.8401 219.407 26.0049C219.492 26.1359 219.499 26.3915 219.371 26.6613C219.056 26.4637 218.775 26.2702 218.773 26.1811Z" fill="white"/>
<path d="M205.621 27.3446C205.019 27.3021 204.695 26.7507 204.51 25.9542C204.325 25.1577 204.438 24.1072 204.489 23.8381C204.539 23.5693 204.255 23.7081 204.145 24.3608C204.036 25.0128 203.925 26.0555 204.313 27.1471C204.701 28.2374 205.362 28.6443 205.94 28.5048C206.519 28.3661 207.029 27.0077 207.209 26.3982C207.388 25.7884 208.19 23.3016 208.645 23.1679C208.708 23.4728 208.291 24.2375 208.158 25.3873C208.025 26.537 208.256 28.0449 209.716 28.3124C211.175 28.5801 212.165 27.6333 212.524 26.9753C212.884 26.3182 213.051 25.6273 213.092 25.2802C213.138 26.1625 213.74 27.5402 214.909 27.9328C216.039 28.3124 216.902 27.9649 217.283 27.473C217.622 27.036 217.897 26.1362 217.921 25.446C217.944 24.7565 217.348 23.4947 217.215 23.0929C217.081 22.6921 217.012 22.4139 217.001 22.2751C216.989 22.1363 217.302 22.4358 217.499 22.4946C217.632 22.5212 217.586 22.2326 217.423 22.0343C217.262 21.8368 216.386 20.5088 216.325 20.6013C216.287 20.6567 215.936 21.6336 215.913 21.7831C216.052 21.8743 216.213 22.1255 216.225 22.3663C216.236 22.607 216.468 23.6656 216.682 24.2538C216.896 24.8419 217.313 25.9704 217.342 26.2807C216.926 26.5745 215.987 26.9482 215.096 26.5694C214.204 26.1892 213.92 25.6385 213.821 24.6546C213.759 24.0258 213.752 22.8677 213.528 21.8993C213.402 21.3519 213.136 20.7955 212.819 20.5C212.745 20.6814 212.409 21.7993 212.409 21.7993C212.518 22.1201 212.859 23.2003 212.848 24.1363C212.836 25.0716 212.762 25.9869 211.713 26.6177C210.665 27.2484 209.172 26.9972 208.784 26.0129C208.395 25.029 209.258 22.8153 209.247 22.2326C209.235 21.6498 209.131 21.5691 208.888 21.6656C208.645 21.7619 208.146 22.3237 207.718 23.2378C207.289 24.1525 207.099 25.0665 206.855 25.8367C206.612 26.6069 206.223 27.3872 205.621 27.3446Z" fill="white"/>
<path d="M188.146 23.9324C188.887 23.8787 189.513 23.3172 189.674 23.168C189.837 23.0177 189.924 22.7939 189.808 22.8789C188.951 23.6437 187.805 23.6653 187.74 23.5367C187.769 23.4084 188.071 23.1997 188.511 22.906C188.779 22.7273 189.017 22.5599 189.195 22.3225L189.243 22.3309C189.57 22.4025 189.946 22.545 190.061 22.4309C190.248 22.2462 190.273 21.9436 190.07 21.6175C189.899 21.3406 189.498 21.083 189.151 20.8969C188.804 20.7119 188.737 21.0073 188.692 21.1127C188.649 21.2109 188.667 21.2947 188.74 21.2967C188.628 21.449 188.549 21.6452 188.52 21.8072C188.501 21.9119 188.516 21.9977 188.559 22.0682C188.571 22.0882 188.635 22.1668 188.757 22.2134L188.908 22.2604C188.648 22.5001 188.349 22.6878 188.192 22.7827C187.909 22.9539 187.573 23.2534 187.469 23.563C187.364 23.8737 187.405 23.9861 188.146 23.9324ZM189.455 21.7478L189.484 21.5898V21.4885C189.719 21.6593 190.094 21.9828 190.071 22.1766C189.922 22.1429 189.639 22.0831 189.37 22.0139C189.404 21.9332 189.432 21.8447 189.455 21.7478ZM188.759 21.7971C188.586 21.6593 188.755 21.5219 188.908 21.4334C189.105 21.3193 189.221 21.4135 189.322 21.713C189.287 21.7988 189.237 21.8822 189.179 21.9622C189.025 21.9146 188.808 21.8383 188.759 21.7971Z" fill="white"/>
<path d="M190.368 32.2979C190.155 32.4826 190.072 33.0837 190.116 33.1198C190.159 33.1559 190.824 33.3805 190.929 33.4291L190.976 33.2481C191.293 33.5327 191.644 34.9529 191.723 34.957C191.801 34.9607 191.914 34.7962 191.988 34.4191C192.056 34.0693 192.125 33.5459 192.196 33.1198C192.262 32.7298 192.366 32.5066 192.6 32.462C192.835 32.4181 193.009 32.719 193.069 32.9236C193.069 32.9236 193.234 32.5302 193.269 32.2858C193.23 32.1571 192.865 31.6723 192.565 31.8326C192.266 31.9934 192.078 32.6737 192.017 33.0992C191.956 33.524 191.91 34.0507 191.836 34.1351C191.758 33.7725 191.51 33.1235 191.211 32.7588C190.874 32.3503 190.48 32.2004 190.368 32.2979Z" fill="white"/>
<path d="M187.529 31.5709C187.807 31.4946 188.433 31.3987 188.732 31.2423C189.015 31.11 189.496 30.4644 189.683 30.2236C189.87 29.9829 189.87 29.862 189.823 29.7982C189.632 29.6935 188.398 29.5898 187.803 29.7374C187.638 29.8485 187.316 30.4438 187.269 30.5684C187.221 30.6923 187.287 30.6845 187.486 30.6406C187.686 30.5961 188.633 30.62 188.975 30.6923C188.832 30.7929 187.864 31.2822 187.673 31.3987C187.482 31.5148 187.434 31.583 187.529 31.5709Z" fill="white"/>
<path d="M244.905 35.0183C244.876 34.2967 244.523 33.1889 243.179 31.4891C242.715 30.9023 242.063 30.1385 241.374 29.3562C241.355 29.0894 241.336 28.8456 241.319 28.6363C241.229 27.5595 240.923 25.3627 240.792 24.0641C240.759 23.7366 240.757 23.3881 240.762 23.2061C240.766 23.0616 240.87 23.0808 241.014 23.2294C241.157 23.3776 241.377 23.5941 241.423 23.5792C241.521 23.5455 241.436 23.2176 241.241 22.829C241.046 22.4396 240.308 20.8652 240.173 20.804C240.103 20.773 239.755 21.6975 239.734 21.8866C239.803 22.0027 239.981 22.1834 239.998 22.7091C240.017 23.2345 240.334 26.3375 240.516 28.2929L240.526 28.4019C239.497 27.2529 238.527 26.2052 238.128 25.7804C238.059 25.7068 237.983 25.623 237.902 25.5332C237.837 25.0102 237.777 24.5118 237.735 24.1002C237.702 23.7734 237.7 23.4242 237.706 23.2422C237.709 23.0981 237.814 23.1176 237.957 23.2662C238.101 23.4144 238.321 23.6309 238.367 23.6154C238.464 23.5823 238.379 23.2544 238.184 22.8651C237.989 22.4758 237.22 20.8652 237.084 20.804C237.015 20.773 236.651 21.7711 236.63 21.9588C236.699 22.0756 236.877 22.2563 236.895 22.782C236.902 23.0052 236.96 23.6819 237.037 24.5358C236.355 23.7251 235.687 22.8762 235.64 22.7037C235.623 22.6186 235.767 22.6709 236.034 22.7141C236.3 22.7567 236.549 22.8367 236.507 22.705C236.486 22.6439 236.385 22.4913 236.13 22.3333C235.875 22.1756 235.222 21.767 234.737 21.4787C234.25 21.19 234.009 20.9472 233.908 21.0164C233.859 21.0505 233.903 22.0402 233.931 22.1628C234.054 22.1739 234.28 22.2647 234.424 22.4572C234.569 22.6497 235.5 23.9544 236.236 24.8366C236.447 25.0906 236.779 25.4843 237.167 25.9388C237.243 26.7515 237.323 27.5912 237.389 28.2929C237.538 29.8934 238.075 34.1144 238.08 35.4863C237.684 35.858 236.873 36.3767 236.039 36.3875C235.206 36.398 234.748 36.1785 234.412 35.5585C234.309 35.3664 234.212 35.1733 234.117 34.9984C233.889 34.5827 233.383 34.3494 232.894 34.4639L232.819 34.4838L232.686 34.5476C232.356 34.7208 232.013 35.0112 231.679 35.4616C231.1 36.243 230.731 37.0905 230.303 37.8246C229.857 38.589 229.515 39.1019 228.732 38.9793C228.182 38.8929 227.763 38.4205 227.506 37.8394C228.23 37.3383 228.756 36.6846 229.14 35.7787C229.641 34.6013 229.82 33.274 229.775 31.7815C229.732 30.3769 229.092 27.0723 228.923 25.8057C228.754 24.5385 228.512 23.4985 228.54 23.2281C228.566 22.9671 228.982 23.5816 229.195 23.6275C229.304 23.6032 229.245 23.2112 229.038 22.8799C228.898 22.6547 228.454 21.6303 228.163 21.1363C228.027 20.9026 227.994 20.7672 227.93 20.7395C227.868 20.7108 227.384 21.7444 227.442 21.8568C227.585 22.0615 227.683 22.159 227.713 22.5257C227.744 22.8924 228.075 25.5842 228.365 27.5666C228.584 29.0624 229.066 31.7795 229.128 33.7879C229.149 34.4433 229.055 34.9136 228.974 35.1763C228.766 35.5788 228.427 36.0259 227.235 36.8744C227.051 35.6754 227.251 34.7012 227.076 34.6111C226.879 34.6324 226.848 35.1912 226.826 35.8807C226.815 36.1991 226.829 36.6401 226.888 37.1138C225.424 38.0923 223.49 38.9834 222.582 39.4591C222.049 39.7387 222.241 39.8039 222.692 39.6644C223.143 39.5243 225.622 38.8743 226.945 38.1784L227.087 38.0994C227.155 38.3327 227.236 38.5586 227.336 38.7669C227.781 39.6921 228.418 40.2415 229.107 40.1878C229.686 40.1432 230.107 39.523 230.473 38.7832C230.844 38.0342 231.47 36.612 232.085 36.0829C232.321 35.879 232.564 35.7176 232.802 35.6207C232.802 35.6207 233.222 35.4806 233.608 35.7328C233.746 35.8239 233.849 35.9536 233.915 36.0988C234.067 36.4321 234.247 36.8562 234.615 37.2114C235.264 37.836 236.307 37.707 237.089 37.3437C237.87 36.9801 238.269 36.4128 238.443 35.7389C238.739 34.5858 238.692 33.4043 238.635 32.3549C238.57 31.1572 238.379 29.9332 238.27 28.6363C238.235 28.2193 238.166 27.6392 238.088 27.0101C238.85 27.8894 239.641 28.7818 240.121 29.2697C240.286 29.4382 240.461 29.6253 240.64 29.8228C240.783 31.7859 240.921 34.2424 240.994 35.2732C241.065 36.3004 241.019 37.5916 241.011 37.8161C241.002 38.0407 241.127 38.0022 241.306 37.5038C241.546 36.8349 241.697 35.0808 241.645 33.9175C241.613 33.2264 241.544 31.9662 241.47 30.7743C242.061 31.477 242.622 32.1864 242.988 32.6652C243.637 33.5154 244.233 34.5263 244.442 35.1571C244.65 35.7885 244.673 35.9756 244.714 36.088C244.754 36.2004 244.933 35.7399 244.905 35.0183Z" fill="white"/>
<path d="M233.94 59.036C233.881 58.8682 233.702 58.7452 233.487 58.7452C233.272 58.7452 233.093 58.8682 233.034 59.036H231C230.979 58.8104 230.999 58.5836 231.063 58.3628L235.262 58.3602L235.379 58.5573C235.485 58.7349 235.618 58.8954 235.773 59.036L233.94 59.036ZM236.72 57.0847H231.674C232.061 56.8049 232.265 56.3964 232.21 55.9833C232.175 55.7228 231.917 55.5283 231.603 55.502H231.445C231.062 55.5393 230.785 55.8151 230.825 56.1181L230.841 56.2345L230.859 56.4137C230.88 56.6386 230.86 56.8646 230.797 57.0847H193.498C194.052 57.8906 195.062 58.3847 196.152 58.384L230.188 58.3631C229.798 58.6433 229.594 59.0525 229.649 59.4664C229.69 59.7693 230.032 59.9851 230.415 59.9477C230.797 59.9103 231.074 59.6345 231.034 59.3312L231.019 59.2151H233.019C233.054 59.4103 233.249 59.5601 233.487 59.5601C233.724 59.5601 233.919 59.4103 233.955 59.2151H235.99V59.2103C236.414 59.5118 236.954 59.685 237.525 59.685C238.063 59.685 238.498 59.3118 238.498 58.851V58.61C238.498 57.7679 237.702 57.0847 236.72 57.0847" fill="white"/>
</g>
<defs>
<clipPath id="clip0_6662_42385">
<rect y="0.5" width="119.216" height="80" rx="7" fill="white"/>
</clipPath>
<clipPath id="clip1_6662_42385">
<rect x="156" y="0.5" width="120" height="80" rx="7" fill="white"/>
</clipPath>
</defs>
</svg>
