<svg width="30" height="30" viewBox="0 0 30 30" fill="none" xmlns="http://www.w3.org/2000/svg">
<path d="M3.0241 22.831L3.02428 22.8339C3.11845 24.4761 3.68467 25.7399 4.59259 26.5935C5.50076 27.4474 6.80056 27.9375 8.4501 27.9375H21.5501C23.2231 27.9375 24.515 27.4603 25.4127 26.6182C26.3103 25.7761 26.8696 24.5166 26.9761 22.8436L3.0241 22.831ZM3.0241 22.831L2.3741 12.5185L2.37407 12.5181C2.28287 11.0931 2.77201 9.72932 3.75099 8.69343L3.751 8.69343L3.75299 8.6913C4.72092 7.65504 6.0886 7.0625 7.50009 7.0625C8.09254 7.0625 8.65117 6.71531 8.922 6.17422M3.0241 22.831L8.922 6.17422M8.922 6.17422C8.9221 6.17402 8.92221 6.17381 8.92231 6.17361L9.82154 4.38763C10.1407 3.75468 10.7154 3.16839 11.4098 2.73944C12.1044 2.31032 12.8801 2.0625 13.5751 2.0625H16.4376C17.1324 2.0625 17.9049 2.3102 18.5965 2.73778C19.2869 3.16462 19.8585 3.7472 20.1781 4.37403L21.0767 6.19615L21.0804 6.20369L21.0844 6.21111C21.3555 6.71734 21.8963 7.0625 22.5001 7.0625C23.9116 7.0625 25.2793 7.65504 26.2472 8.6913L26.2473 8.69144C27.2292 9.74183 27.7172 11.0946 27.6261 12.5181L27.6261 12.5186L26.9761 22.8433L8.922 6.17422ZM14.0751 2.95V2.9375H13.5751C12.9937 2.9375 12.3782 3.16038 11.8622 3.4794C11.3457 3.7987 10.8695 4.25104 10.6042 4.77373L10.6029 4.77639L9.7046 6.57296C9.26253 7.4228 8.41919 7.9375 7.50009 7.9375C6.31078 7.9375 5.20551 8.4204 4.38774 9.28047L4.38773 9.28046L4.38477 9.28363C3.58003 10.1448 3.16667 11.2798 3.25122 12.4587C3.25128 12.4595 3.25134 12.4603 3.2514 12.4611L3.90097 22.7797C3.90099 22.78 3.90101 22.7803 3.90103 22.7806C3.98097 24.1237 4.38877 25.215 5.18689 25.967C5.98519 26.7192 7.10019 27.0625 8.4501 27.0625H21.5501C22.8945 27.0625 24.006 26.7188 24.8039 25.967C25.6014 25.2156 26.0126 24.1251 26.0991 22.7821L26.0991 22.7814L26.7491 12.4564L26.7492 12.4551C26.8197 11.2838 26.4237 10.1486 25.6154 9.28363L25.6154 9.28361L25.6124 9.28047C24.7947 8.4204 23.6894 7.9375 22.5001 7.9375C21.5801 7.9375 20.7361 7.42179 20.2944 6.59556L19.3848 4.77639C19.1252 4.25723 18.6503 3.80737 18.1361 3.49009C17.6217 3.17276 17.0063 2.95 16.4251 2.95H14.0751Z" fill="#292D32" stroke="#121212"/>
<path d="M16.875 10.9375H13.125C12.6125 10.9375 12.1875 10.5125 12.1875 10C12.1875 9.4875 12.6125 9.0625 13.125 9.0625H16.875C17.3875 9.0625 17.8125 9.4875 17.8125 10C17.8125 10.5125 17.3875 10.9375 16.875 10.9375Z" fill="#292D32"/>
<path d="M15 23.4375C12.2375 23.4375 10 21.2 10 18.4375C10 15.675 12.2375 13.4375 15 13.4375C17.7625 13.4375 20 15.675 20 18.4375C20 21.2 17.7625 23.4375 15 23.4375ZM15 15.3125C13.275 15.3125 11.875 16.7125 11.875 18.4375C11.875 20.1625 13.275 21.5625 15 21.5625C16.725 21.5625 18.125 20.1625 18.125 18.4375C18.125 16.7125 16.725 15.3125 15 15.3125Z" fill="#292D32"/>
</svg>
